<svg width="30" height="24" viewBox="0 0 30 24" fill="none" xmlns="http://www.w3.org/2000/svg">
<path d="M30 2.8505C28.8742 3.33611 27.6807 3.65231 26.4593 3.7885C27.7535 3.04835 28.7182 1.85691 29.1626 0.449959C27.9578 1.15714 26.6369 1.65206 25.2593 1.9125C24.6946 1.32074 24.0149 0.846624 23.2605 0.518244C22.5062 0.189864 21.6925 0.0139032 20.8678 0.000791091C20.0431 -0.012321 19.2241 0.137682 18.4594 0.441911C17.6947 0.746139 16.9998 1.1984 16.4159 1.77189C15.8346 2.32717 15.3751 2.99378 15.0656 3.73062C14.7562 4.46746 14.6033 5.25891 14.6165 6.05614C14.6193 6.52202 14.6714 6.98634 14.7717 7.44163C12.3043 7.33049 9.8904 6.69535 7.69565 5.57975C5.52972 4.49062 3.61922 2.96741 2.08696 1.10804C1.53191 2.03329 1.24249 3.08955 1.24957 4.16408C1.24202 5.17383 1.49778 6.16859 1.99239 7.05321C2.46992 7.92172 3.15621 8.66191 3.9913 9.20913C3.01549 9.1751 2.06224 8.91089 1.21174 8.4387V8.51382C1.19222 9.92171 1.68888 11.2894 2.61065 12.366C3.50294 13.4483 4.75271 14.1881 6.14217 14.4564C5.61404 14.5932 5.07023 14.6624 4.52413 14.6625C4.13686 14.6592 3.75036 14.6277 3.36783 14.5681C3.76269 15.7703 4.52895 16.8212 5.55968 17.574C6.5904 18.3269 7.83417 18.7441 9.11739 18.7676C6.95109 20.4696 4.25452 21.3835 1.48304 21.355C0.987676 21.358 0.492536 21.3333 0 21.2812C2.8079 23.0795 6.09116 24.0248 9.44087 23.9995C11.5343 24.0143 13.6143 23.6689 15.587 22.9787C17.3795 22.3672 19.0441 21.4395 20.4991 20.2411C21.8564 19.0984 23.0394 17.7693 24.0117 16.2945C24.9722 14.8558 25.7129 13.286 26.2102 11.6354C26.6872 10.0557 26.9312 8.41676 26.9348 6.76879C26.9348 6.41867 26.9285 6.15608 26.9159 5.98102C28.1199 5.12072 29.1634 4.06155 30 2.8505Z" fill="#808080"/>
</svg>
